<svg width="67" height="67" viewBox="0 0 67 67" fill="none" xmlns="http://www.w3.org/2000/svg">
<path d="M20.3604 39.948C16.7251 39.948 13.289 38.7183 10.716 36.1916L0.0964355 25.7645L0.700811 24.9384C0.752491 24.8678 1.98412 23.1959 4.00476 21.4321C6.77258 19.0165 9.58419 17.6417 12.3611 17.3443C14.0736 17.1616 15.9562 17.2129 17.6565 17.4843C17.5054 15.8712 17.5776 14.0608 17.9161 12.2694C19.326 4.80463 24.3441 0.805965 24.5567 0.63909L25.3745 0L36.0047 10.4369C38.9035 13.2837 40.2823 17.3107 39.8866 21.7761C39.4988 26.1558 37.4415 30.4449 34.0942 33.8541C30.1531 37.8678 25.0881 39.948 20.3604 39.948ZM3.25284 25.5459L12.3749 34.5027C17.3622 39.3993 26.3473 38.3641 32.4049 32.1949C35.3692 29.1761 37.1886 25.4023 37.5283 21.5678C37.8601 17.8204 36.7298 14.4676 34.3459 12.1262L25.2577 3.20256C23.9141 4.54821 21.1687 7.80521 20.2424 12.7089C19.8456 14.8088 19.8897 16.674 20.1103 18.0832C21.424 18.5431 22.4244 19.1846 22.8312 19.9965C23.2264 20.7855 23.0789 21.6696 22.4363 22.3611C21.7486 23.1016 20.8413 23.2925 20.0081 22.8716C19.1808 22.4534 18.5315 21.3962 18.1133 19.9701C16.6671 19.6521 14.7376 19.4718 12.6132 19.6986C8.31824 20.1582 4.67699 23.8871 3.25284 25.5459Z" fill="#D0B787"/>
<path d="M25.7124 66.0165L24.8871 65.4102C24.8165 65.3585 23.1478 64.1237 21.3883 62.0991C18.9783 59.3262 17.609 56.5122 17.3178 53.7341C17.1375 52.022 17.194 50.139 17.4685 48.4395C15.855 48.5875 14.0454 48.5113 12.2544 48.1693C4.79201 46.7436 0.804387 41.7168 0.638302 41.5034L0 40.6844L10.4602 30.0767C16.2834 24.1702 26.7863 25.0491 33.8723 32.0358C40.9583 39.0228 41.9856 49.5122 36.162 55.419L25.7124 66.0165ZM19.9559 47.9874C19.6347 49.4337 19.4493 51.3624 19.6718 53.4872C20.1215 57.7687 23.8445 61.4265 25.5014 62.8585L34.4759 53.757C39.3831 48.78 38.3668 39.7924 32.2103 33.7222C26.0541 27.6509 17.0531 26.7617 12.1459 31.7387L3.20335 40.8083C4.54544 42.1551 7.79771 44.9068 12.6986 45.8433C14.7981 46.2445 16.663 46.2043 18.0729 45.9873C18.5349 44.6748 19.1787 43.6747 19.9918 43.2704C20.7815 42.8767 21.6652 43.0258 22.3556 43.6704C23.0941 44.3592 23.2831 45.2669 22.8606 46.0989C22.4412 46.9254 21.3824 47.5724 19.9559 47.9874Z" fill="#D0B787"/>
<path d="M40.6666 66.3267L30.1125 55.8129C27.2346 52.9452 25.8851 48.9087 26.3131 44.4453C26.7328 40.0695 28.8209 35.7955 32.1931 32.4103C35.5645 29.0254 39.8311 26.9208 44.2057 26.4852C48.6663 26.0418 52.7088 27.3744 55.5871 30.2413L66.1309 40.7453L65.5206 41.5674C65.4685 41.6372 64.2247 43.3009 62.1914 45.0497C59.4062 47.4451 56.5852 48.7994 53.8059 49.0772C52.0914 49.2472 50.21 49.1821 48.5113 48.8984C48.6509 50.5127 48.5657 52.3223 48.2142 54.1114C46.7502 61.5663 41.7034 65.5283 41.4892 65.6932L40.6666 66.3267ZM45.8622 28.7694C45.3955 28.7694 44.9209 28.7931 44.4404 28.8412C40.6102 29.2227 36.8561 31.0836 33.8706 34.0814C30.8838 37.0784 29.0375 40.84 28.6698 44.6714C28.3108 48.4164 29.4166 51.7771 31.7836 54.1358L40.8075 63.125C42.1606 61.7888 44.9296 58.5511 45.891 53.6553C46.3029 51.5586 46.2721 49.6926 46.0622 48.2822C44.7521 47.8128 43.756 47.1642 43.3555 46.3492C42.9658 45.5574 43.1196 44.6741 43.7674 43.9869C44.4602 43.2523 45.3691 43.0685 46.1991 43.4942C47.0232 43.9183 47.6651 44.9803 48.073 46.4091C49.5173 46.7378 51.4444 46.933 53.5704 46.7212C57.8539 46.2939 61.5318 42.5892 62.9717 40.9406L53.916 31.9187C51.8535 29.8634 49.0316 28.7694 45.8622 28.7694Z" fill="#D0B787"/>
<path d="M46.171 40.0012C41.4705 40.0012 36.4355 37.9518 32.4964 33.9878C29.1297 30.5983 27.0472 26.3215 26.6337 21.9445C26.2116 17.4811 27.5663 13.4457 30.4486 10.5824L41.0062 0.0926514L41.8256 0.707284C41.895 0.759753 43.5519 2.0119 45.2905 4.05463C47.6713 6.85204 49.0114 9.68022 49.2746 12.4607C49.4367 14.1756 49.3614 16.0569 49.069 17.7541C50.6837 17.6227 52.4933 17.717 54.2808 18.078C61.727 19.5802 65.6629 24.6472 65.8271 24.8622L66.4563 25.6879L55.888 36.188C53.308 38.7514 49.8419 40.0012 46.171 40.0012ZM34.1766 32.3191C40.2701 38.4524 49.2615 39.4343 54.2196 34.5086L63.2553 25.5313C61.9266 24.171 58.7035 21.3855 53.8117 20.3988C51.7173 19.9759 49.8509 19.9972 48.4394 20.2C47.9633 21.5082 47.31 22.5003 46.4929 22.8968C45.6988 23.2822 44.8171 23.1236 44.133 22.4727C43.402 21.7764 43.2221 20.8663 43.6529 20.0386C44.081 19.2165 45.1461 18.5802 46.5774 18.1801C46.9131 16.7375 47.1186 14.8107 46.9174 12.6836C46.5127 8.39809 42.8268 4.70161 41.1853 3.253L32.1169 12.2622C29.7468 14.617 28.6366 17.977 28.9905 21.7216C29.3522 25.5542 31.1942 29.3173 34.1766 32.3191Z" fill="#D0B787"/>
</svg>
