<svg width="49" height="50" viewBox="0 0 49 50" fill="none" xmlns="http://www.w3.org/2000/svg">
<g clip-path="url(#clip0_1_3270)">
<path d="M15.4948 26.1717C15.4044 26.1284 15.327 26.0621 15.2703 25.9795C15.2136 25.8968 15.1796 25.8008 15.1717 25.7009C15.1638 25.601 15.1822 25.5008 15.2252 25.4102C15.2681 25.3197 15.3341 25.242 15.4165 25.185L18.4006 23.1214L16.1916 22.0641C16.1002 22.0204 16.0221 21.9532 15.9651 21.8695C15.9082 21.7857 15.8745 21.6883 15.8675 21.5872C15.8606 21.4862 15.8805 21.3851 15.9254 21.2942C15.9703 21.2034 16.0385 21.1262 16.123 21.0703L18.9078 19.2311C19.0345 19.1473 19.1892 19.1174 19.338 19.1477C19.4868 19.1781 19.6174 19.2663 19.7011 19.393C19.7848 19.5196 19.8148 19.6744 19.7845 19.8231C19.7541 19.9719 19.6659 20.1025 19.5392 20.1862L17.598 21.4684L19.7847 22.515C19.8751 22.5583 19.9526 22.6245 20.0094 22.7071C20.0662 22.7898 20.1003 22.8858 20.1083 22.9858C20.1163 23.0857 20.0978 23.186 20.0549 23.2766C20.0119 23.3672 19.9459 23.4449 19.8634 23.5019L16.068 26.1264C15.985 26.1838 15.8882 26.2183 15.7875 26.2262C15.6868 26.2342 15.5858 26.2154 15.4948 26.1717ZM34.6955 32.4781L30.3605 41.5349C29.769 42.7661 28.7133 43.7124 27.425 44.1662C26.1367 44.62 24.721 44.5443 23.4884 43.9556L13.6749 39.2584C12.4434 38.6676 11.4965 37.6125 11.0419 36.3244C10.5874 35.0364 10.6623 33.6207 11.2502 32.3878L12.4855 29.8069C12.075 29.61 11.7594 29.2582 11.6078 28.8289C11.4563 28.3995 11.4813 27.9276 11.6773 27.5167L11.9244 27.0005C10.6929 26.4097 9.74597 25.3546 9.29141 24.0665C8.83684 22.7785 8.91173 21.3628 9.49965 20.1299L12.2174 14.4519C11.6698 14.1897 11.2488 13.7208 11.0469 13.1483C10.845 12.5757 10.8789 11.9464 11.141 11.3988C11.4031 10.8512 11.872 10.4302 12.4446 10.2283C13.0171 10.0264 13.6464 10.0603 14.194 10.3224L16.2599 11.3112L19.2248 5.11703C19.4889 4.5722 19.958 4.15412 20.5296 3.95422C21.1011 3.75431 21.7285 3.78884 22.2747 4.05025C22.8208 4.31166 23.2412 4.77868 23.444 5.3492C23.6468 5.91972 23.6154 6.54732 23.3567 7.09476L20.3918 13.289L23.4907 14.7723L26.4556 8.57805C26.7179 8.03012 27.1871 7.60882 27.76 7.40683C28.3328 7.20483 28.9625 7.23869 29.5105 7.50096C30.0584 7.76323 30.4797 8.23242 30.6817 8.80531C30.8837 9.37821 30.8498 10.0079 30.5875 10.5558L27.6227 16.75L29.6886 17.7389C30.2362 18.001 30.6573 18.4699 30.8591 19.0424C31.061 19.615 31.0272 20.2443 30.7651 20.7919C30.503 21.3395 30.034 21.7605 29.4615 21.9624C28.8889 22.1643 28.2596 22.1305 27.712 21.8683L24.9943 27.5464C24.4028 28.7775 23.3471 29.7238 22.0588 30.1776C20.7705 30.6314 19.3548 30.5557 18.1222 29.9671L17.8751 30.4833C17.678 30.8937 17.3261 31.2091 16.8967 31.3604C16.4672 31.5117 15.9953 31.4864 15.5845 31.2902L14.3491 33.8711C14.1531 34.282 14.1281 34.754 14.2796 35.1833C14.4312 35.6127 14.7468 35.9644 15.1574 36.1613L24.9706 40.8584C25.3815 41.0547 25.8534 41.0799 26.2828 40.9286C26.7123 40.7774 27.0642 40.4619 27.2613 40.0515L31.4257 31.3513C30.5555 29.7546 30.3432 27.8812 30.834 26.1303C31.5909 23.6302 33.8852 21.5583 37.2942 20.2959C41.9135 18.586 42.1459 16.98 42.1478 16.9638C42.149 16.8304 42.1981 16.7018 42.2862 16.6015C42.3742 16.5012 42.4954 16.4359 42.6276 16.4175C42.7625 16.399 42.8996 16.4283 43.0152 16.5002C43.1309 16.5722 43.2177 16.6823 43.2607 16.8116C46.7642 27.0369 40.5226 30.2508 34.6955 32.4781ZM32.5902 31.1176C32.7969 30.5087 33.0619 29.9211 33.3816 29.3631C32.2796 26.9069 33.228 25.4747 33.2703 25.4135C33.3556 25.2879 33.4874 25.2014 33.6365 25.173C33.7857 25.1445 33.94 25.1765 34.0656 25.2618C34.1912 25.3472 34.2777 25.4789 34.3061 25.6281C34.3346 25.7772 34.3026 25.9316 34.2173 26.0571C34.065 26.3853 33.9806 26.7409 33.9692 27.1025C33.9579 27.4641 34.0198 27.8243 34.1512 28.1614C34.9699 27.0446 35.9012 26.015 36.9305 25.0886C36.8789 24.0838 37.0529 23.0802 37.4395 22.1513C37.4967 22.0107 37.6074 21.8985 37.7473 21.8395C37.8872 21.7804 38.0448 21.7794 38.1855 21.8366C38.3261 21.8938 38.4383 22.0045 38.4974 22.1444C38.5564 22.2843 38.5574 22.4419 38.5002 22.5826C38.3097 23.0677 38.1723 23.5721 38.0907 24.0869C38.7923 23.5098 39.525 22.9716 40.2855 22.4748C40.4136 22.3934 40.5689 22.3663 40.717 22.3993C40.8652 22.4324 40.9941 22.523 41.0755 22.6511C41.1569 22.7792 41.184 22.9344 41.151 23.0826C41.1179 23.2307 41.0273 23.3597 40.8992 23.4411C39.8749 24.1226 38.9 24.8756 37.9819 25.6945C37.9557 25.7236 37.9265 25.7498 37.8948 25.7726C37.4224 26.1958 36.9341 26.6646 36.4593 27.1716C36.9229 27.2242 37.3925 27.1691 37.8314 27.0106C38.2703 26.8522 38.6668 26.5946 38.9899 26.2579C39.0943 26.1477 39.2383 26.0835 39.3901 26.0794C39.5419 26.0753 39.6891 26.1317 39.7993 26.2361C39.9096 26.3405 39.9738 26.4845 39.9779 26.6363C39.982 26.7881 39.9256 26.9353 39.8211 27.0455C39.2956 27.6093 38.6206 28.0121 37.8749 28.2069C37.1292 28.4017 36.3435 28.3805 35.6094 28.1458C34.7272 29.1809 34.0502 30.3745 33.6147 31.6629C39.3641 29.5169 44.9362 27.0395 42.5751 18.4648C41.8687 19.2843 40.4677 20.3417 37.6924 21.3693C34.6273 22.5041 32.5808 24.3129 31.9302 26.4621C31.7201 27.2425 31.6703 28.0572 31.7837 28.8574C31.8971 29.6575 32.1716 30.4264 32.5902 31.1176ZM24.5237 15.2667L26.5897 16.2556L29.5546 10.0614C29.6857 9.78741 29.7026 9.47257 29.6016 9.18612C29.5006 8.89967 29.29 8.66508 29.016 8.53395C28.742 8.40281 28.4272 8.38588 28.1408 8.48688C27.8543 8.58788 27.6197 8.79853 27.4886 9.07249L24.5237 15.2667ZM17.2929 11.8057L19.3588 12.7945L22.3237 6.60032C22.4523 6.32671 22.4675 6.01334 22.3659 5.72857C22.2644 5.4438 22.0544 5.21074 21.7817 5.08021C21.509 4.94968 21.1957 4.93228 20.9103 5.0318C20.6248 5.13133 20.3902 5.3397 20.2578 5.61147L17.2929 11.8057ZM12.7116 13.4195L28.2062 20.836C28.48 20.967 28.7946 20.984 29.0809 20.883C29.3672 20.7821 29.6016 20.5716 29.7327 20.2978C29.8638 20.024 29.8807 19.7093 29.7797 19.423C29.6788 19.1368 29.4683 18.9023 29.1945 18.7712L13.6999 11.3548C13.4261 11.2237 13.1114 11.2068 12.8251 11.3077C12.5389 11.4086 12.3044 11.6192 12.1734 11.893C12.0423 12.1668 12.0254 12.4814 12.1263 12.7677C12.2273 13.054 12.4378 13.2884 12.7116 13.4195ZM12.4185 25.9681L18.6164 28.9347C19.575 29.3926 20.6761 29.4515 21.6781 29.0985C22.6801 28.7455 23.5012 28.0095 23.9613 27.0519L26.6791 21.3739L13.2504 14.9463L10.5326 20.6243C10.0753 21.5832 10.017 22.6844 10.3706 23.6862C10.7241 24.688 11.4607 25.5087 12.4185 25.9681ZM12.9797 28.7745L16.0786 30.2578C16.2155 30.3232 16.3728 30.3316 16.516 30.2812C16.6591 30.2307 16.7764 30.1256 16.8422 29.9888L17.0892 29.4726L12.9573 27.4949L12.7103 28.0111C12.645 28.1481 12.6367 28.3054 12.6872 28.4485C12.7377 28.5916 12.8429 28.7088 12.9797 28.7745ZM29.3273 41.0404L33.1484 33.0572L33.0276 33.1018C32.9104 33.1452 32.7822 33.149 32.6626 33.1128C32.543 33.0766 32.4386 33.0023 32.3651 32.9012C32.278 32.7813 32.207 32.6606 32.1261 32.5405L28.2943 40.5459C27.9657 41.2299 27.3792 41.7556 26.6635 42.0077C25.9477 42.2599 25.1612 42.2178 24.4765 41.8908L14.6632 37.1937C13.9791 36.8654 13.453 36.2792 13.2005 35.5637C12.948 34.8481 12.9896 34.0616 13.3162 33.3767L14.5515 30.7957L13.5185 30.3013L12.2832 32.8822C11.8259 33.8411 11.7676 34.9423 12.1212 35.9441C12.4747 36.9459 13.2112 37.7665 14.1691 38.226L23.9824 42.9231C24.941 43.381 26.0421 43.4399 27.0441 43.0869C28.0461 42.734 28.8672 41.998 29.3273 41.0404Z" fill="white"/>
</g>
<defs>
<clipPath id="clip0_1_3270">
<rect width="36.6251" height="36.6251" fill="white" transform="translate(15.8125 0.311401) rotate(25.5781)"/>
</clipPath>
</defs>
</svg>
